<svg xmlns="http://www.w3.org/2000/svg" width="1200" height="675" viewBox="0 0 1200 675"><defs><linearGradient id="g" x1="0" x2="1"><stop stop-color="#f6f0e4"/><stop offset="1" stop-color="#dfeeea"/></linearGradient><pattern id="p" width="36" height="36" patternUnits="userSpaceOnUse"><path d="M36 0H0v36" fill="none" stroke="#20313a" stroke-opacity=".06"/></pattern></defs><rect width="1200" height="675" fill="url(#g)"/><rect width="1200" height="675" fill="url(#p)"/><path d="M95 289 C280 130 430 440 610 280 S920 170 1080 310" fill="none" stroke="#4f334f" stroke-width="12" stroke-linecap="round" opacity=".18"/><path d="M95 360 C310 500 480 185 675 350 S950 470 1080 255" fill="none" stroke="#c87b2f" stroke-width="8" stroke-linecap="round" opacity=".18"/><text x="70" y="95" font-size="34" font-weight="900" fill="#4f334f">Chapter 7</text><text x="70" y="150" font-size="58" font-weight="900" fill="#15252d">船联网安全机制</text><text x="70" y="205" font-size="28" font-weight="700" fill="#56666d">在攻击、误操作和弱网条件下保持可信与可用</text><g transform="translate(90 250)"><circle r="38" fill="#4f334f" opacity=".92"/><text text-anchor="middle" y="6" font-size="18" font-weight="800" fill="#fff">1</text><text text-anchor="middle" y="62" font-size="18" font-weight="700" fill="#20313a">资产识别</text></g><g transform="translate(235 320)"><circle r="38" fill="#c87b2f" opacity=".92"/><text text-anchor="middle" y="6" font-size="18" font-weight="800" fill="#fff">2</text><text text-anchor="middle" y="62" font-size="18" font-weight="700" fill="#20313a">威胁建模</text></g><g transform="translate(380 250)"><circle r="38" fill="#4f334f" opacity=".92"/><text text-anchor="middle" y="6" font-size="18" font-weight="800" fill="#fff">3</text><text text-anchor="middle" y="62" font-size="18" font-weight="700" fill="#20313a">分区隔离</text></g><g transform="translate(525 320)"><circle r="38" fill="#c87b2f" opacity=".92"/><text text-anchor="middle" y="6" font-size="18" font-weight="800" fill="#fff">4</text><text text-anchor="middle" y="62" font-size="18" font-weight="700" fill="#20313a">访问控制</text></g><g transform="translate(670 250)"><circle r="38" fill="#4f334f" opacity=".92"/><text text-anchor="middle" y="6" font-size="18" font-weight="800" fill="#fff">5</text><text text-anchor="middle" y="62" font-size="18" font-weight="700" fill="#20313a">日志审计</text></g><g transform="translate(815 320)"><circle r="38" fill="#c87b2f" opacity=".92"/><text text-anchor="middle" y="6" font-size="18" font-weight="800" fill="#fff">6</text><text text-anchor="middle" y="62" font-size="18" font-weight="700" fill="#20313a">应急恢复</text></g><text x="70" y="610" font-size="23" font-weight="800" fill="#15252d">物联网与船联网技术 · 安全目标与威胁模型 / 攻击面与风险分级 / 认证、加密、审计与分区 / 远程运维、补丁和降级</text></svg>
