<svg viewBox="0 0 64 64" fill="none" xmlns="http://www.w3.org/2000/svg">
  <!-- Background circle -->
  <circle cx="32" cy="32" r="30" stroke="#2F528F" stroke-width="2" fill="#E1F0FA"/>

  <!-- Wave pattern (ocean) -->
  <path d="M8 42 C16 38 24 46 32 42 C40 38 48 46 56 42" stroke="#4682B4" stroke-width="2" fill="none" stroke-linecap="round"/>
  <path d="M8 48 C16 44 24 52 32 48 C40 44 48 52 56 48" stroke="#B0CEE6" stroke-width="2" fill="none" stroke-linecap="round"/>

  <!-- Ship hull -->
  <path d="M20 36 L24 28 L40 28 L44 36 Z" fill="#4682B4" stroke="#2F528F" stroke-width="1.5" stroke-linejoin="round"/>

  <!-- Ship superstructure -->
  <rect x="28" y="20" width="8" height="8" rx="1" fill="#2F528F"/>

  <!-- Antenna/mast -->
  <line x1="32" y1="12" x2="32" y2="20" stroke="#2F528F" stroke-width="2" stroke-linecap="round"/>

  <!-- Signal waves (IoS connectivity) -->
  <path d="M26 14 C24 12 24 10 26 8" stroke="#489196" stroke-width="1.5" fill="none" stroke-linecap="round"/>
  <path d="M38 14 C40 12 40 10 38 8" stroke="#489196" stroke-width="1.5" fill="none" stroke-linecap="round"/>
  <path d="M22 16 C19 13 19 9 22 6" stroke="#489196" stroke-width="1.5" fill="none" stroke-linecap="round"/>
  <path d="M42 16 C45 13 45 9 42 6" stroke="#489196" stroke-width="1.5" fill="none" stroke-linecap="round"/>

  <!-- Central signal point -->
  <circle cx="32" cy="11" r="2" fill="#489196"/>
</svg>
